<?xml version="1.0" encoding="utf-8"?>
<!-- Generator: Adobe Illustrator 25.4.1, SVG Export Plug-In . SVG Version: 6.00 Build 0)  -->
<svg version="1.0" id="katman_1" xmlns="http://www.w3.org/2000/svg" xmlns:xlink="http://www.w3.org/1999/xlink" x="0px" y="0px"
	 viewBox="0 0 1024 768" style="enable-background:new 0 0 1024 768;" xml:space="preserve">
<style type="text/css">
	.st0{fill:none;stroke:#041B64;stroke-width:23.0376;stroke-linecap:round;stroke-linejoin:round;}
	.st1{fill:none;stroke:#CE0058;stroke-width:23.0376;stroke-linecap:round;stroke-linejoin:round;}
</style>
<g id="Artboard">
	<g id="Group-Copy" transform="translate(3.535318, 0.905374)">
		<path id="Path" class="st0" d="M298.7,310.1c4.1-108.1,93.4-194.4,202.6-194.4h15.9c34.7,0,67.5,8.8,96.3,24.7"/>
		<path id="Path_00000176017451525820328040000010113050408987749004_" class="st0" d="M424.4,636.6c-74-30-125.7-102.8-125.7-187.4
			v-78.1"/>
		<path id="Path_00000146458640504853315320000013680868222163256766_" class="st1" d="M668.7,183.8c31.7,35.8,50.5,82.2,50.5,133.9
			v131.6c0,111.6-90.4,202-202,202H509"/>
		<path id="Path_00000145051350118097940340000006926866158545464495_" class="st1" d="M613.5,534.4c-25.8,28.8-63.4,47-105.1,47
			l0,0c-77.5,0-141-62.8-141-141V324.7c0-35.8,13.5-68.7,35.8-93.4"/>
		<path id="Path_00000002359230086219329130000005736268604662411405_" class="st0" d="M451.4,196.1c17.6-7.6,36.4-11.7,57-11.7l0,0
			c77.5,0,141,62.8,141,141v116.3c0,11.7-1.8,23.5-4.1,34.7"/>
		<path id="Path_00000034062835812562982400000014712514077320618422_" class="st0" d="M439.1,393.5v-69.3
			c0-38.2,31.1-69.9,69.9-69.9l0,0c38.2,0,69.9,31.1,69.9,69.9v118c0,38.2-31.1,69.9-69.9,69.9l0,0c-38.2,0-69.9-31.1-69.9-69.9"/>
		<line id="Path_00000046310428068502171080000012736930023309388930_" class="st1" x1="508.4" y1="325.9" x2="508.4" y2="395.8"/>
		<line id="Path_00000042704384679296554260000009207750548381316787_" class="st0" x1="508.4" y1="441.6" x2="508.4" y2="465.1"/>
	</g>
</g>
</svg>
